<svg width="25" height="24" viewBox="0 0 25 24" fill="none" xmlns="http://www.w3.org/2000/svg">
<path d="M16.999 0C15.7195 0.0884995 14.224 0.907495 13.3525 1.97399C12.5575 2.94148 11.9035 4.37847 12.1585 5.77497C13.5565 5.81847 15.001 4.97997 15.838 3.89548C16.621 2.88598 17.2135 1.45799 16.999 0Z" fill="black"/>
<path d="M22.0556 8.05167C20.8271 6.51118 19.1006 5.61719 17.4701 5.61719C15.3176 5.61719 14.4071 6.64768 12.9116 6.64768C11.3696 6.64768 10.1981 5.62019 8.33665 5.62019C6.50816 5.62019 4.56117 6.73768 3.32668 8.64867C1.59119 11.3397 1.88818 16.3991 4.70067 20.7086C5.70716 22.2506 7.05115 23.9846 8.80914 23.9996C10.3736 24.0146 10.8146 22.9961 12.9341 22.9856C15.0536 22.9736 15.4556 24.0131 17.0171 23.9966C18.7766 23.9831 20.1941 22.0616 21.2006 20.5196C21.9221 19.4141 22.1906 18.8576 22.7501 17.6096C18.6806 16.0601 18.0281 10.2732 22.0556 8.05167Z" fill="black"/>
</svg>
