<svg width="16" height="16" viewBox="0 0 16 16" fill="none" xmlns="http://www.w3.org/2000/svg">
<path fill-rule="evenodd" clip-rule="evenodd" d="M3.20243 14.4295C3.31954 14.4505 3.43821 14.4669 3.55794 14.4785C3.70344 14.4927 3.85098 14.5 4 14.5C4.87687 14.5 5.69631 14.2487 6.38878 13.8142C6.9046 13.9356 7.44453 14 8 14C11.548 14 14.5 11.3538 14.5 8C14.5 4.64623 11.548 2 8 2C4.45199 2 1.5 4.64623 1.5 8C1.5 9.60571 2.18306 11.0581 3.28247 12.1282C3.43714 12.2788 3.46738 12.4131 3.45215 12.4899C3.36836 12.9123 3.17791 13.2968 2.90904 13.6141C2.79344 13.7505 2.75951 13.9383 2.82006 14.1066C2.8806 14.2749 3.0264 14.398 3.20243 14.4295ZM5.5 7.25C5.08579 7.25 4.75 7.58579 4.75 8C4.75 8.41421 5.08579 8.75 5.5 8.75C5.91421 8.75 6.25 8.41421 6.25 8C6.25 7.58579 5.91421 7.25 5.5 7.25ZM7.25 8C7.25 7.58579 7.58579 7.25 8 7.25C8.41421 7.25 8.75 7.58579 8.75 8C8.75 8.41421 8.41421 8.75 8 8.75C7.58579 8.75 7.25 8.41421 7.25 8ZM10.5 7.25C10.0858 7.25 9.75 7.58579 9.75 8C9.75 8.41421 10.0858 8.75 10.5 8.75C10.9142 8.75 11.25 8.41421 11.25 8C11.25 7.58579 10.9142 7.25 10.5 7.25Z" fill="#808080"/>
</svg>
