<svg width="18" height="19" viewBox="0 0 18 19" fill="none" xmlns="http://www.w3.org/2000/svg">
<path fill-rule="evenodd" clip-rule="evenodd" d="M12.6755 2.66297L12.648 2.54297C12.5955 2.31997 12.5095 1.99197 12.332 1.66897C12.151 1.33997 11.8705 1.00647 11.4305 0.786966C10.992 0.568466 10.4425 0.486966 9.76301 0.576966C9.01301 0.676966 7.50651 0.924966 6.17551 1.60197C4.83701 2.28297 3.58301 3.45447 3.58301 5.40547C3.58301 6.41347 3.97301 7.49497 4.35101 8.19997C4.53251 8.53897 4.74801 8.86297 4.96401 9.03747C5.01351 9.07747 5.08401 9.12747 5.17151 9.16247C5.41152 9.95125 5.8893 10.6466 6.53952 11.1536C7.18975 11.6605 7.98068 11.9543 8.80417 11.9947C9.62767 12.035 10.4435 11.8201 11.1402 11.3792C11.8369 10.9383 12.3805 10.293 12.6965 9.53147L12.7085 9.53347L12.886 9.31797L12.8865 9.31697L12.8875 9.31597L12.89 9.31247L12.8985 9.30247C12.9413 9.24918 12.9824 9.19466 13.022 9.13897C13.1297 8.98905 13.2315 8.83493 13.327 8.67697C13.562 8.28797 13.8455 7.73397 14.027 7.08747C14.208 6.44097 14.291 5.68297 14.101 4.90097C13.916 4.13997 13.4795 3.39097 12.689 2.72197L12.6755 2.66297ZM11.8355 8.98197C11.6187 9.60559 11.2022 10.1403 10.6507 10.5033C10.0992 10.8663 9.44341 11.0373 8.78487 10.9899C8.12633 10.9425 7.5018 10.6792 7.00802 10.2409C6.51423 9.80261 6.17874 9.21373 6.05351 8.56547L5.99701 8.58447C5.99921 8.55619 6.00021 8.52783 6.00001 8.49947C6.00001 7.67197 6.11501 7.09447 6.22201 6.73447C6.243 6.66442 6.26617 6.59506 6.29151 6.52647L6.31201 6.52747H6.33201C6.70589 6.53549 7.07966 6.50702 7.44801 6.44247C8.30651 6.29747 9.46901 5.93547 10.838 5.09697C10.868 5.16397 10.898 5.23947 10.928 5.32347C11.026 5.60097 11.1065 5.93047 11.176 6.27847C11.2375 6.58497 11.288 6.89347 11.336 7.18247L11.3545 7.29647C11.406 7.60647 11.4575 7.91097 11.5175 8.13147C11.6225 8.51447 11.7295 8.78647 11.8355 8.98147M12.5355 8.04997C12.7611 7.6622 12.9384 7.2483 13.0635 6.81747C13.213 6.28447 13.268 5.70747 13.129 5.13697C12.994 4.58197 12.6675 3.99847 11.996 3.44547C11.875 3.36347 11.82 3.25347 11.805 3.22397V3.22347C11.779 3.16931 11.7579 3.11291 11.742 3.05497C11.726 2.99797 11.7085 2.91997 11.692 2.84997L11.6745 2.77147C11.627 2.56997 11.5655 2.35047 11.4555 2.14997C11.3485 1.95597 11.202 1.78997 10.984 1.68147C10.765 1.57197 10.426 1.49697 9.89501 1.56797C9.16851 1.66447 7.80201 1.89597 6.62901 2.49297C5.46401 3.08547 4.58301 3.98247 4.58301 5.40497C4.58301 6.05997 4.80301 6.80497 5.06801 7.39247C5.11801 7.00947 5.19001 6.69647 5.26401 6.44847C5.31613 6.2714 5.38045 6.09815 5.45651 5.92997C5.48566 5.86785 5.51735 5.80697 5.55151 5.74747L5.56001 5.73397L5.56301 5.72897L5.56451 5.72647L5.56551 5.72497L5.75051 5.43797L6.08151 5.50447L6.08851 5.50597L6.13701 5.51247C6.21141 5.52082 6.28615 5.52582 6.36101 5.52747C6.66928 5.53338 6.9774 5.50927 7.28101 5.45547C8.08751 5.31947 9.27251 4.94897 10.712 3.99047L11.062 3.75697L11.3515 4.06197C11.59 4.31297 11.752 4.65547 11.8705 4.98897C11.9915 5.33147 12.083 5.71397 12.1565 6.08097C12.2175 6.39328 12.2728 6.70666 12.3225 7.02097L12.3415 7.13297C12.395 7.45847 12.4385 7.70697 12.4825 7.86797C12.5005 7.9343 12.5182 7.99497 12.5355 8.04997Z" fill="#3640CE"/>
<path fill-rule="evenodd" clip-rule="evenodd" d="M12.043 12.4275C12.149 12.2165 12.2795 11.956 12.5 12.0065C15.202 12.6215 18 14.397 18 16.285V19H0V16.285C0 14.798 1.736 13.3805 3.7935 12.545L3.796 12.54L3.803 12.5265L3.8195 12.5345C4.366 12.3145 4.935 12.1345 5.5 12.0065C5.7515 11.949 6.0115 12.295 6.125 12.5115H12L12.043 12.4275ZM5.2985 13.0875C5.07983 13.1481 4.863 13.216 4.648 13.291C4.642 13.462 4.655 13.664 4.683 13.87C4.71131 14.0833 4.75679 14.294 4.819 14.5H5.5C5.59283 14.5 5.68382 14.5259 5.76276 14.5748C5.84171 14.6236 5.9055 14.6934 5.947 14.7765L6.447 15.7765C6.48177 15.8459 6.49992 15.9224 6.5 16V17C6.5 17.1326 6.44732 17.2598 6.35355 17.3535C6.25979 17.4473 6.13261 17.5 6 17.5H5V16.5H5.5V16.118L5.191 15.5H3.809L3.5 16.118V16.5H4V17.5H3C2.86739 17.5 2.74021 17.4473 2.64645 17.3535C2.55268 17.2598 2.5 17.1326 2.5 17V16C2.50008 15.9224 2.51823 15.8459 2.553 15.7765L3.053 14.7765C3.09449 14.6934 3.15829 14.6236 3.23724 14.5748C3.31619 14.5259 3.40717 14.5 3.5 14.5H3.783C3.72185 14.2352 3.68041 13.9663 3.659 13.6955C3.1715 13.926 2.7185 14.1905 2.326 14.4765C1.365 15.1775 1 15.8335 1 16.285V18H17V16.285C17 15.8335 16.635 15.1775 15.674 14.4765C15.191 14.124 14.6145 13.805 13.9965 13.541C13.9792 13.9394 13.9153 14.3344 13.806 14.718L13.802 14.732C14.1009 14.9211 14.3234 15.2097 14.4301 15.547C14.5369 15.8842 14.521 16.2483 14.3853 16.5749C14.2497 16.9016 14.0029 17.1698 13.6887 17.3322C13.3745 17.4946 13.013 17.5407 12.668 17.4624C12.3231 17.3841 12.0169 17.1864 11.8036 16.9043C11.5902 16.6221 11.4835 16.2737 11.5021 15.9205C11.5208 15.5673 11.6637 15.232 11.9056 14.9739C12.1474 14.7158 12.4727 14.5515 12.824 14.51L12.846 14.438C12.8989 14.2517 12.9381 14.0619 12.9635 13.87C12.9915 13.6761 13.0032 13.4803 12.9985 13.2845C12.9968 13.2425 12.9943 13.2051 12.991 13.1725C12.931 13.1538 12.871 13.136 12.811 13.119L12.6035 13.512H5.5215L5.2985 13.0875ZM13 16.508C12.731 16.508 12.5 16.288 12.5 16.0005C12.5 15.7135 12.731 15.493 13 15.493C13.269 15.493 13.5 15.713 13.5 16.0005C13.5 16.2875 13.269 16.508 13 16.508Z" fill="#3640CE"/>
</svg>
