<svg width="20" height="20" viewBox="0 0 20 20" fill="none" xmlns="http://www.w3.org/2000/svg">
<path d="M13.182 13.182C11.4246 14.9393 8.57538 14.9393 6.81802 13.182M19 10C19 14.9706 14.9706 19 10 19C5.02944 19 1 14.9706 1 10C1 5.02944 5.02944 1 10 1C14.9706 1 19 5.02944 19 10ZM7.75 7.75C7.75 8.16421 7.58211 8.5 7.375 8.5C7.16789 8.5 7 8.16421 7 7.75C7 7.33579 7.16789 7 7.375 7C7.58211 7 7.75 7.33579 7.75 7.75ZM7.375 7.75H7.3825V7.765H7.375V7.75ZM13 7.75C13 8.16421 12.8321 8.5 12.625 8.5C12.4179 8.5 12.25 8.16421 12.25 7.75C12.25 7.33579 12.4179 7 12.625 7C12.8321 7 13 7.33579 13 7.75ZM12.625 7.75H12.6325V7.765H12.625V7.75Z" stroke="#808080" stroke-width="1.5" stroke-linecap="round" stroke-linejoin="round"/>
</svg>
