<svg width="32" height="32" viewBox="0 0 32 32" fill="none" xmlns="http://www.w3.org/2000/svg">
<path d="M13.6 18.0005C13.9183 18.0005 14.2235 17.8741 14.4486 17.649C14.6736 17.424 14.8 17.1187 14.8 16.8005C14.8 16.4822 14.6736 16.177 14.4486 15.952C14.2235 15.7269 13.9183 15.6005 13.6 15.6005C13.2818 15.6005 12.9766 15.7269 12.7515 15.952C12.5265 16.177 12.4 16.4822 12.4 16.8005C12.4 17.1187 12.5265 17.424 12.7515 17.649C12.9766 17.8741 13.2818 18.0005 13.6 18.0005ZM17.6 5.60048C17.6 5.48516 17.575 5.37122 17.5268 5.26646C17.4787 5.1617 17.4084 5.06859 17.3209 4.99352C17.2333 4.91846 17.1306 4.8632 17.0197 4.83153C16.9088 4.79987 16.7924 4.79255 16.6784 4.81008L5.47845 6.52208C5.28962 6.55112 5.11742 6.64677 4.99299 6.79174C4.86856 6.93672 4.80012 7.12143 4.80005 7.31248V24.6885C4.80012 24.8795 4.86856 25.0642 4.99299 25.2092C5.11742 25.3542 5.28962 25.4498 5.47845 25.4789L16.6784 27.1925C16.7924 27.21 16.9088 27.2027 17.0197 27.171C17.1306 27.1394 17.2333 27.0841 17.3209 27.009C17.4084 26.934 17.4787 26.8409 17.5268 26.7361C17.575 26.6313 17.6 26.5174 17.6 26.4021V16.0005H25.8752L24.2801 17.3989C24.1299 17.541 24.0406 17.7358 24.0309 17.9423C24.0212 18.1488 24.0918 18.3511 24.228 18.5067C24.3641 18.6623 24.5552 18.7591 24.7612 18.7769C24.9672 18.7947 25.172 18.732 25.3328 18.6021L28.5264 15.8021C28.6121 15.727 28.6807 15.6345 28.7278 15.5307C28.7748 15.427 28.7991 15.3144 28.7991 15.2005C28.7991 15.0866 28.7748 14.974 28.7278 14.8702C28.6807 14.7665 28.6121 14.674 28.5264 14.5989L25.3328 11.7989C25.1733 11.6593 24.9648 11.5888 24.7533 11.6029C24.5417 11.617 24.3445 11.7145 24.2048 11.8741C24.0652 12.0336 23.9947 12.2421 24.0088 12.4537C24.0229 12.6652 24.1205 12.8625 24.2801 13.0021L25.8752 14.4005H17.6V5.60048ZM16 6.53168V25.4725L6.40005 24.0005V7.99888L16 6.53168ZM20 25.6005H19.2V17.6005H20.8V24.8005C20.8 25.0127 20.7158 25.2161 20.5657 25.3662C20.4157 25.5162 20.2122 25.6005 20 25.6005ZM19.2 12.8005V6.40048H20C20.2122 6.40048 20.4157 6.48476 20.5657 6.63479C20.7158 6.78482 20.8 6.9883 20.8 7.20048V12.8005H19.2Z" fill="#FF0000"/>
</svg>
