<svg width="18" height="22" viewBox="0 0 18 22" fill="none" xmlns="http://www.w3.org/2000/svg">
<path fill-rule="evenodd" clip-rule="evenodd" d="M9 0.5C6.10051 0.5 3.75 2.85051 3.75 5.75V8.75C2.09315 8.75 0.75 10.0931 0.75 11.75V18.5C0.75 20.1569 2.09315 21.5 3.75 21.5H14.25C15.9069 21.5 17.25 20.1569 17.25 18.5V11.75C17.25 10.0931 15.9069 8.75 14.25 8.75V5.75C14.25 2.85051 11.8995 0.5 9 0.5ZM12.75 8.75V5.75C12.75 3.67893 11.0711 2 9 2C6.92893 2 5.25 3.67893 5.25 5.75V8.75H12.75Z" fill="#808080"/>
</svg>
