<svg width="12" height="12" viewBox="0 0 12 12" fill="none" xmlns="http://www.w3.org/2000/svg">
<path fill-rule="evenodd" clip-rule="evenodd" d="M9.67551 2.66297L9.64801 2.54297C9.59551 2.31997 9.50951 1.99197 9.33201 1.66897C9.15101 1.33997 8.87051 1.00647 8.43051 0.786966C7.99201 0.568466 7.44251 0.486966 6.76301 0.576966C6.01301 0.676966 4.50651 0.924966 3.17551 1.60197C1.83701 2.28297 0.583007 3.45447 0.583007 5.40547C0.583007 6.41347 0.973006 7.49497 1.35101 8.19997C1.53251 8.53897 1.74801 8.86297 1.96401 9.03747C2.01351 9.07747 2.08401 9.12747 2.17151 9.16247C2.41152 9.95125 2.8893 10.6466 3.53952 11.1536C4.18975 11.6605 4.98068 11.9543 5.80417 11.9947C6.62767 12.035 7.44355 11.8201 8.14025 11.3792C8.83695 10.9383 9.38047 10.293 9.69651 9.53147L9.70851 9.53347L9.88601 9.31797L9.88651 9.31697L9.88751 9.31597L9.89001 9.31247L9.89851 9.30247C9.94126 9.24918 9.98244 9.19466 10.022 9.13897C10.1297 8.98905 10.2315 8.83493 10.327 8.67697C10.562 8.28797 10.8455 7.73397 11.027 7.08747C11.208 6.44097 11.291 5.68297 11.101 4.90097C10.916 4.13997 10.4795 3.39097 9.68901 2.72197L9.67551 2.66297ZM8.83551 8.98197C8.61865 9.60559 8.20223 10.1403 7.65072 10.5033C7.09922 10.8663 6.44341 11.0373 5.78487 10.9899C5.12633 10.9425 4.5018 10.6792 4.00802 10.2409C3.51423 9.80261 3.17874 9.21373 3.05351 8.56547L2.99701 8.58447C2.99921 8.55619 3.00021 8.52783 3.00001 8.49947C3.00001 7.67197 3.11501 7.09447 3.22201 6.73447C3.243 6.66442 3.26617 6.59506 3.29151 6.52647L3.31201 6.52747H3.33201C3.70589 6.53549 4.07966 6.50702 4.44801 6.44247C5.30651 6.29747 6.46901 5.93547 7.83801 5.09697C7.86801 5.16397 7.89801 5.23947 7.92801 5.32347C8.02601 5.60097 8.10651 5.93047 8.17601 6.27847C8.23751 6.58497 8.28801 6.89347 8.33601 7.18247L8.35451 7.29647C8.40601 7.60647 8.45751 7.91097 8.51751 8.13147C8.62251 8.51447 8.72951 8.78647 8.83551 8.98147M9.53551 8.04997C9.76111 7.6622 9.93843 7.2483 10.0635 6.81747C10.213 6.28447 10.268 5.70747 10.129 5.13697C9.99401 4.58197 9.66751 3.99847 8.99601 3.44547C8.87501 3.36347 8.82001 3.25347 8.80501 3.22397V3.22347C8.77899 3.16931 8.7579 3.11291 8.74201 3.05497C8.72601 2.99797 8.70851 2.91997 8.69201 2.84997L8.67451 2.77147C8.62701 2.56997 8.56551 2.35047 8.45551 2.14997C8.34851 1.95597 8.20201 1.78997 7.98401 1.68147C7.76501 1.57197 7.42601 1.49697 6.89501 1.56797C6.16851 1.66447 4.80201 1.89597 3.62901 2.49297C2.46401 3.08547 1.58301 3.98247 1.58301 5.40497C1.58301 6.05997 1.80301 6.80497 2.06801 7.39247C2.11801 7.00947 2.19001 6.69647 2.26401 6.44847C2.31613 6.2714 2.38045 6.09815 2.45651 5.92997C2.48566 5.86785 2.51735 5.80697 2.55151 5.74747L2.56001 5.73397L2.56301 5.72897L2.56451 5.72647L2.56551 5.72497L2.75051 5.43797L3.08151 5.50447L3.08851 5.50597L3.13701 5.51247C3.21141 5.52082 3.28615 5.52582 3.36101 5.52747C3.66928 5.53338 3.9774 5.50927 4.28101 5.45547C5.08751 5.31947 6.27251 4.94897 7.71201 3.99047L8.06201 3.75697L8.35151 4.06197C8.59001 4.31297 8.75201 4.65547 8.87051 4.98897C8.99151 5.33147 9.08301 5.71397 9.15651 6.08097C9.21748 6.39328 9.27282 6.70666 9.32251 7.02097L9.34151 7.13297C9.39501 7.45847 9.43851 7.70697 9.48251 7.86797C9.50051 7.9343 9.51817 7.99497 9.53551 8.04997Z" fill="#3640CE"/>
</svg>
