<svg width="26" height="26" viewBox="0 0 26 26" fill="none" xmlns="http://www.w3.org/2000/svg">
<path d="M22.6887 2.81231C22.3009 2.42414 21.8404 2.11621 21.3335 1.90612C20.8266 1.69603 20.2833 1.58789 19.7346 1.58789C19.186 1.58789 18.6426 1.69603 18.1358 1.90612C17.6289 2.11621 17.1684 2.42414 16.7806 2.81231L4.23462 15.3583C3.63908 15.9548 3.21423 16.6999 3.00425 17.5162L1.61768 22.9127C1.5833 23.047 1.58453 23.1879 1.62126 23.3215C1.65798 23.4552 1.72893 23.5769 1.8271 23.6748C1.92527 23.7726 2.04726 23.8432 2.18103 23.8795C2.3148 23.9157 2.45572 23.9165 2.58987 23.8817L7.98472 22.4967C8.80132 22.2875 9.54665 21.8625 10.1427 21.2663L22.6887 8.72034C23.0768 8.33254 23.3847 7.87205 23.5948 7.36518C23.8049 6.85831 23.9131 6.31501 23.9131 5.76632C23.9131 5.21764 23.8049 4.67433 23.5948 4.16746C23.3847 3.66059 23.0768 3.2001 22.6887 2.81231ZM17.9074 3.93909C18.392 3.45447 19.0493 3.18222 19.7346 3.18222C20.42 3.18222 21.0773 3.45447 21.5619 3.93909C22.0465 4.4237 22.3187 5.08098 22.3187 5.76632C22.3187 6.45167 22.0465 7.10894 21.5619 7.59356L20.3203 8.83509L16.6659 5.18062L17.9074 3.93909ZM15.5391 6.3074L19.1936 9.96187L9.01587 20.1396C8.62141 20.5337 8.12817 20.8144 7.58787 20.9524L3.49672 22.0042L4.54859 17.9131C4.68577 17.3725 4.96663 16.8791 5.3614 16.4851L15.5391 6.3074Z" fill="#FBFBFD"/>
</svg>
