<svg width="32" height="32" viewBox="0 0 32 32" fill="none" xmlns="http://www.w3.org/2000/svg">
<path d="M12.7914 5.2534C12.9119 4.53012 13.5377 4 14.271 4H17.7296C18.4628 4 19.0886 4.53012 19.2092 5.2534L19.4938 6.96147C19.577 7.46019 19.9103 7.87562 20.3526 8.12048C20.4515 8.17522 20.5493 8.23178 20.6459 8.2901C21.0792 8.55179 21.6063 8.63315 22.0804 8.45554L23.7029 7.8477C24.3896 7.59046 25.1616 7.86734 25.5282 8.50236L27.2575 11.4976C27.6241 12.1326 27.4779 12.9396 26.9118 13.4057L25.5727 14.5081C25.1827 14.8292 24.9893 15.325 24.9987 15.83C24.9997 15.8866 25.0003 15.9432 25.0003 16C25.0003 16.0568 24.9997 16.1134 24.9987 16.1699C24.9893 16.675 25.1827 17.1708 25.5727 17.4919L26.9118 18.5943C27.4779 19.0603 27.6241 19.8673 27.2575 20.5024L25.5282 23.4976C25.1616 24.1326 24.3896 24.4095 23.7029 24.1523L22.0804 23.5444C21.6064 23.3668 21.0793 23.4482 20.6459 23.7099C20.5493 23.7682 20.4515 23.8248 20.3526 23.8795C19.9103 24.1244 19.577 24.5398 19.4938 25.0385L19.2092 26.7466C19.0886 27.4699 18.4628 28 17.7296 28H14.271C13.5377 28 12.9119 27.4699 12.7914 26.7466L12.5067 25.0385C12.4236 24.5398 12.0903 24.1244 11.6479 23.8795C11.549 23.8248 11.4513 23.7682 11.3547 23.7099C10.9213 23.4482 10.3942 23.3668 9.92011 23.5445L8.29762 24.1523C7.61097 24.4095 6.83898 24.1327 6.47235 23.4976L4.74304 20.5024C4.37641 19.8674 4.52261 19.0604 5.08872 18.5943L6.42785 17.4919C6.81787 17.1708 7.0112 16.675 7.00184 16.17C7.0008 16.1134 7.00027 16.0568 7.00027 16C7.00027 15.9432 7.0008 15.8866 7.00184 15.8301C7.0112 15.325 6.81786 14.8292 6.42785 14.5081L5.08872 13.4057C4.52261 12.9397 4.37641 12.1327 4.74304 11.4976L6.47235 8.50238C6.83898 7.86736 7.61097 7.59048 8.29762 7.84772L9.92009 8.45556C10.3942 8.63316 10.9213 8.5518 11.3547 8.29011C11.4512 8.23178 11.549 8.17523 11.6479 8.12048C12.0903 7.87562 12.4236 7.46019 12.5067 6.96147L12.7914 5.2534Z" stroke="#3640CE" stroke-width="1.5" stroke-linecap="round" stroke-linejoin="round"/>
<path d="M20 15.9999C20 18.209 18.2091 19.9999 16 19.9999C13.7908 19.9999 12 18.209 12 15.9999C12 13.7908 13.7908 11.9999 16 11.9999C18.2091 11.9999 20 13.7908 20 15.9999Z" stroke="#3640CE" stroke-width="1.5" stroke-linecap="round" stroke-linejoin="round"/>
</svg>
