<svg width="32" height="32" viewBox="0 0 32 32" fill="none" xmlns="http://www.w3.org/2000/svg">
<path d="M8.71533 3H23.2847C23.5101 2.99948 23.7334 3.04349 23.9417 3.1295C24.1501 3.21552 24.3394 3.34185 24.4988 3.50124C24.6582 3.66063 24.7845 3.84993 24.8705 4.05828C24.9565 4.26664 25.0005 4.48993 25 4.71534L24.6907 14.66H7.18866L7 4.71534C6.984 3.76534 7.76533 3 8.71533 3Z" stroke="#3640CE" stroke-width="1.5" stroke-linecap="round" stroke-linejoin="round"/>
<path d="M24.6906 14.6602V17.7482C24.8053 19.0048 23.2686 18.9895 22.272 18.9948C18.61 19.0135 17.8493 20.7062 17.9593 22.5222C18.0633 24.2368 18.0906 24.4542 18.114 25.4215C18.1706 27.7462 17.0506 29.0002 15.9393 29.0002C14.828 29.0002 13.7086 27.7468 13.7653 25.4215C13.7886 24.4542 13.816 24.2368 13.92 22.5222C14.0293 20.7062 13.2693 19.0135 9.60663 18.9948C8.60996 18.9895 7.0733 19.0048 7.18863 17.7482V14.6602" stroke="#3640CE" stroke-width="1.5" stroke-linecap="round" stroke-linejoin="round"/>
</svg>
